<svg xmlns="http://www.w3.org/2000/svg" xmlns:xlink="http://www.w3.org/1999/xlink" width="500" zoomAndPan="magnify" viewBox="0 0 375 374.999991" height="500" preserveAspectRatio="xMidYMid meet" version="1.0"><rect x="-37.5" width="450" fill="#ffffff" y="-37.499999" height="449.999989" fill-opacity="1"/><rect x="-37.5" width="450" fill="#ffffff" y="-37.499999" height="449.999989" fill-opacity="1"/><path fill="#1c00db" d="M 187.5 0 C 83.945312 0 0 83.945312 0 187.5 C 0 291.054688 83.945312 375 187.5 375 C 291.054688 375 375 291.054688 375 187.5 C 375 83.945312 291.054688 0 187.5 0 Z M 223.3125 298.011719 C 217.574219 299.117188 215.53125 295.59375 215.53125 292.554688 C 215.53125 288.824219 215.679688 276.601562 215.679688 261.414062 C 215.679688 250.820312 212.0625 243.898438 208.011719 240.394531 C 233.195312 237.582031 259.648438 227.980469 259.648438 184.367188 C 259.648438 171.976562 255.28125 161.832031 248.023438 153.898438 C 249.1875 151.03125 253.070312 139.480469 246.898438 123.863281 C 246.898438 123.863281 237.429688 120.804688 215.832031 135.507812 C 206.792969 132.992188 197.117188 131.738281 187.519531 131.679688 C 177.898438 131.738281 168.226562 132.992188 159.207031 135.507812 C 137.605469 120.824219 128.117188 123.863281 128.117188 123.863281 C 121.96875 139.5 125.851562 151.03125 127.011719 153.898438 C 119.773438 161.832031 115.367188 171.976562 115.367188 184.367188 C 115.367188 227.867188 141.769531 237.601562 166.875 240.46875 C 163.648438 243.300781 160.726562 248.304688 159.695312 255.636719 C 153.242188 258.542969 136.875 263.550781 126.789062 246.207031 C 126.789062 246.207031 120.824219 235.3125 109.480469 234.507812 C 109.480469 234.507812 98.4375 234.355469 108.710938 241.40625 C 108.710938 241.40625 116.117188 244.894531 121.257812 258.019531 C 121.257812 258.019531 127.894531 280.105469 159.355469 273.242188 C 159.414062 282.710938 159.507812 289.855469 159.507812 292.554688 C 159.507812 295.554688 157.445312 299.0625 151.78125 298.03125 C 106.835938 283.011719 74.4375 240.46875 74.4375 190.3125 C 74.4375 127.59375 125.0625 76.78125 187.519531 76.78125 C 249.976562 76.78125 300.601562 127.613281 300.601562 190.3125 C 300.601562 240.449219 268.238281 282.976562 223.332031 298.011719 Z M 223.3125 298.011719 " fill-opacity="1" fill-rule="nonzero"/></svg>