<svg xmlns="http://www.w3.org/2000/svg" xmlns:xlink="http://www.w3.org/1999/xlink" width="500" zoomAndPan="magnify" viewBox="0 0 375 374.999991" height="500" preserveAspectRatio="xMidYMid meet" version="1.0"><path fill="#f4f6fc" d="M 363.695312 322.742188 L 304.449219 263.496094 C 323.355469 236.53125 334.476562 203.707031 334.53125 168.28125 C 334.667969 77.574219 261.476562 3.007812 170.78125 1.542969 C 76.640625 0.0234375 0.0234375 76.640625 1.542969 170.78125 C 3.007812 261.476562 77.574219 334.667969 168.28125 334.53125 C 203.707031 334.476562 236.53125 323.355469 263.496094 304.449219 C 263.496094 304.449219 322.742188 363.695312 322.742188 363.695312 C 334.050781 375.003906 352.386719 375.003906 363.695312 363.695312 C 375.003906 352.386719 375.003906 334.050781 363.695312 322.742188 Z M 168.027344 276.617188 C 108.148438 276.617188 59.433594 227.902344 59.433594 168.027344 C 59.433594 108.148438 108.148438 59.433594 168.027344 59.433594 C 227.902344 59.433594 276.617188 108.148438 276.617188 168.027344 C 276.617188 227.902344 227.902344 276.617188 168.027344 276.617188 Z M 168.027344 276.617188 " fill-opacity="1" fill-rule="nonzero"/></svg>