<svg xmlns="http://www.w3.org/2000/svg" xmlns:xlink="http://www.w3.org/1999/xlink" width="500" zoomAndPan="magnify" viewBox="0 0 375 374.999991" height="500" preserveAspectRatio="xMidYMid meet" version="1.0"><defs><clipPath id="b28a644a16"><path d="M 56.25 0 L 318.75 0 L 318.75 375 L 56.25 375 Z M 56.25 0 " clip-rule="nonzero"/></clipPath></defs><g clip-path="url(#b28a644a16)"><path fill="#f4f6fc" d="M 187.5 0 C 115.03125 0 56.25 58.78125 56.25 131.25 C 56.25 229.6875 187.5 375 187.5 375 C 187.5 375 318.75 229.6875 318.75 131.25 C 318.75 58.78125 259.96875 0 187.5 0 Z M 187.5 178.125 C 161.625 178.125 140.625 157.125 140.625 131.25 C 140.625 105.375 161.625 84.375 187.5 84.375 C 213.375 84.375 234.375 105.375 234.375 131.25 C 234.375 157.125 213.375 178.125 187.5 178.125 Z M 187.5 178.125 " fill-opacity="1" fill-rule="nonzero"/></g></svg>