<svg xmlns="http://www.w3.org/2000/svg" xmlns:xlink="http://www.w3.org/1999/xlink" width="500" zoomAndPan="magnify" viewBox="0 0 375 374.999991" height="500" preserveAspectRatio="xMidYMid meet" version="1.0"><defs><clipPath id="e1de689d47"><path d="M 53.671875 0 L 321.421875 0 L 321.421875 375 L 53.671875 375 Z M 53.671875 0 " clip-rule="nonzero"/></clipPath></defs><g clip-path="url(#e1de689d47)"><path fill="#f4f6fc" d="M 187.5 0.140625 C 134.53125 107.765625 53.671875 133.96875 53.671875 241.03125 C 53.671875 314.929688 113.601562 374.859375 187.5 374.859375 C 261.398438 374.859375 321.328125 314.929688 321.328125 241.03125 C 321.328125 133.96875 241.59375 107.765625 187.5 0.140625 Z M 80.4375 241.03125 C 80.4375 199.117188 94.675781 172.242188 116.4375 144.085938 C 116.410156 144.191406 116.332031 144.300781 116.304688 144.40625 C 110.683594 160.734375 107.203125 179.203125 107.203125 200.882812 C 107.203125 273.871094 165.847656 333.265625 238.460938 334.605469 C 223.230469 342.929688 206.046875 348.09375 187.5 348.09375 C 128.453125 348.09375 80.4375 300.078125 80.4375 241.03125 Z M 80.4375 241.03125 " fill-opacity="1" fill-rule="nonzero"/></g></svg>