<svg xmlns="http://www.w3.org/2000/svg" xmlns:xlink="http://www.w3.org/1999/xlink" width="500" zoomAndPan="magnify" viewBox="0 0 375 374.999991" height="500" preserveAspectRatio="xMidYMid meet" version="1.0"><defs><clipPath id="92d66282bc"><path d="M 46 50.171875 L 359.339844 50.171875 L 359.339844 208 L 46 208 Z M 46 50.171875 " clip-rule="nonzero"/></clipPath><clipPath id="570d9cb7f4"><path d="M 15.839844 77 L 224 77 L 224 185 L 15.839844 185 Z M 15.839844 77 " clip-rule="nonzero"/></clipPath></defs><g clip-path="url(#92d66282bc)"><path fill="#f4f6fc" d="M 288.460938 49.902344 C 286.5625 49.902344 284.664062 49.996094 282.773438 50.183594 C 280.882812 50.367188 279.003906 50.644531 277.140625 51.015625 C 275.277344 51.386719 273.433594 51.847656 271.617188 52.398438 C 269.796875 52.949219 268.007812 53.585938 266.253906 54.3125 C 264.496094 55.039062 262.777344 55.851562 261.101562 56.746094 C 259.425781 57.640625 257.796875 58.613281 256.214844 59.667969 C 254.632812 60.722656 253.109375 61.855469 251.636719 63.058594 C 250.167969 64.261719 248.757812 65.535156 247.414062 66.878906 C 246.066406 68.21875 244.792969 69.625 243.582031 71.09375 C 242.375 72.5625 241.242188 74.082031 240.183594 75.664062 C 239.125 77.242188 238.148438 78.867188 237.25 80.542969 C 236.351562 82.21875 235.535156 83.933594 234.804688 85.6875 C 234.074219 87.441406 233.433594 89.226562 232.878906 91.046875 C 232.320312 92.863281 231.855469 94.703125 231.480469 96.566406 C 231.109375 98.429688 230.824219 100.308594 230.636719 102.199219 C 230.445312 104.089844 230.347656 105.988281 230.34375 107.886719 C 230.347656 109.453125 230.429688 111.015625 230.585938 112.574219 C 230.742188 114.132812 230.976562 115.675781 231.285156 117.210938 C 231.59375 118.746094 231.976562 120.265625 232.433594 121.761719 C 232.890625 123.257812 233.417969 124.730469 234.019531 126.175781 C 234.621094 127.621094 235.292969 129.035156 236.03125 130.414062 C 236.773438 131.796875 237.578125 133.136719 238.449219 134.4375 C 239.320312 135.738281 240.25 136.996094 241.246094 138.207031 C 242.238281 139.414062 243.289062 140.574219 244.394531 141.679688 C 245.503906 142.789062 246.660156 143.839844 247.871094 144.832031 C 249.082031 145.828125 250.339844 146.757812 251.640625 147.628906 C 252.941406 148.5 254.28125 149.304688 255.660156 150.046875 C 257.042969 150.785156 258.453125 151.457031 259.902344 152.058594 C 261.347656 152.65625 262.816406 153.1875 264.316406 153.644531 C 265.8125 154.101562 267.328125 154.484375 268.863281 154.792969 C 270.398438 155.101562 271.945312 155.335938 273.503906 155.492188 C 275.0625 155.648438 276.625 155.730469 278.191406 155.734375 C 279.488281 155.734375 280.78125 155.671875 282.070312 155.542969 C 283.363281 155.417969 284.644531 155.226562 285.917969 154.972656 C 287.1875 154.722656 288.445312 154.40625 289.6875 154.03125 C 290.925781 153.652344 292.148438 153.214844 293.34375 152.71875 C 294.542969 152.222656 295.714844 151.671875 296.859375 151.058594 C 298.003906 150.449219 299.113281 149.78125 300.191406 149.0625 C 301.269531 148.339844 302.3125 147.570312 303.3125 146.746094 C 304.316406 145.921875 305.277344 145.054688 306.195312 144.136719 C 307.109375 143.21875 307.980469 142.257812 308.804688 141.257812 C 309.625 140.253906 310.398438 139.210938 311.117188 138.132812 C 311.839844 137.054688 312.503906 135.945312 313.117188 134.800781 C 313.726562 133.65625 314.28125 132.484375 314.777344 131.289062 C 315.273438 130.089844 315.710938 128.871094 316.085938 127.628906 C 316.464844 126.386719 316.777344 125.128906 317.03125 123.859375 C 317.285156 122.585938 317.476562 121.304688 317.601562 120.015625 C 317.730469 118.722656 317.792969 117.429688 317.792969 116.132812 C 317.792969 115.050781 317.738281 113.976562 317.632812 112.898438 C 317.527344 111.824219 317.371094 110.757812 317.160156 109.699219 C 316.949219 108.640625 316.6875 107.59375 316.371094 106.558594 C 316.058594 105.523438 315.695312 104.507812 315.28125 103.511719 C 314.867188 102.515625 314.40625 101.539062 313.898438 100.585938 C 313.390625 99.632812 312.835938 98.707031 312.234375 97.808594 C 311.632812 96.910156 310.992188 96.046875 310.308594 95.210938 C 309.621094 94.375 308.898438 93.574219 308.132812 92.8125 C 307.371094 92.046875 306.570312 91.324219 305.734375 90.640625 C 304.898438 89.953125 304.035156 89.3125 303.136719 88.710938 C 302.238281 88.109375 301.3125 87.554688 300.359375 87.046875 C 299.40625 86.539062 298.433594 86.078125 297.433594 85.664062 C 296.4375 85.25 295.421875 84.886719 294.386719 84.574219 C 293.351562 84.257812 292.304688 83.996094 291.246094 83.785156 C 290.1875 83.574219 289.121094 83.417969 288.046875 83.3125 C 286.972656 83.207031 285.894531 83.152344 284.8125 83.152344 C 283.902344 83.148438 282.996094 83.1875 282.089844 83.273438 C 281.183594 83.359375 280.28125 83.488281 279.386719 83.660156 C 278.496094 83.835938 277.613281 84.054688 276.738281 84.3125 C 275.867188 84.574219 275.011719 84.878906 274.167969 85.222656 C 273.324219 85.566406 272.503906 85.953125 271.699219 86.378906 C 270.894531 86.808594 270.113281 87.273438 269.355469 87.773438 C 268.597656 88.277344 267.863281 88.816406 267.160156 89.394531 C 266.453125 89.96875 265.777344 90.578125 265.132812 91.21875 C 264.488281 91.863281 263.875 92.535156 263.296875 93.238281 C 262.71875 93.941406 262.175781 94.667969 261.667969 95.425781 C 261.160156 96.179688 260.691406 96.960938 260.261719 97.761719 C 259.832031 98.5625 259.441406 99.386719 259.089844 100.226562 C 258.742188 101.066406 258.433594 101.921875 258.171875 102.792969 C 257.90625 103.664062 257.683594 104.546875 257.503906 105.4375 C 257.328125 106.332031 257.195312 107.230469 257.105469 108.136719 C 257.015625 109.042969 256.96875 109.949219 256.96875 110.859375 C 256.96875 111.636719 257.007812 112.410156 257.082031 113.179688 C 257.160156 113.949219 257.273438 114.714844 257.425781 115.476562 C 257.574219 116.234375 257.761719 116.984375 257.988281 117.726562 C 258.214844 118.46875 258.472656 119.195312 258.769531 119.914062 C 259.066406 120.628906 259.398438 121.328125 259.761719 122.011719 C 260.128906 122.695312 260.527344 123.359375 260.957031 124.003906 C 261.386719 124.644531 261.847656 125.269531 262.339844 125.867188 C 262.832031 126.464844 263.351562 127.039062 263.898438 127.585938 C 264.445312 128.132812 265.019531 128.652344 265.617188 129.144531 C 266.214844 129.636719 266.835938 130.097656 267.480469 130.527344 C 268.125 130.957031 268.789062 131.355469 269.472656 131.722656 C 270.15625 132.085938 270.855469 132.417969 271.570312 132.714844 C 272.285156 133.011719 273.015625 133.269531 273.757812 133.496094 C 274.5 133.722656 275.25 133.910156 276.007812 134.058594 C 276.769531 134.210938 277.535156 134.324219 278.304688 134.402344 C 279.074219 134.476562 279.847656 134.515625 280.621094 134.515625 C 281.0625 134.507812 281.5 134.457031 281.933594 134.363281 C 282.363281 134.269531 282.78125 134.136719 283.1875 133.964844 C 283.59375 133.792969 283.980469 133.582031 284.347656 133.335938 C 284.710938 133.089844 285.050781 132.808594 285.363281 132.496094 C 285.675781 132.183594 285.957031 131.847656 286.203125 131.480469 C 286.449219 131.113281 286.660156 130.726562 286.832031 130.320312 C 287.003906 129.917969 287.136719 129.496094 287.230469 129.066406 C 287.320312 128.632812 287.371094 128.199219 287.382812 127.757812 C 287.382812 127.3125 287.335938 126.875 287.25 126.4375 C 287.164062 126.003906 287.035156 125.582031 286.867188 125.171875 C 286.695312 124.761719 286.488281 124.371094 286.242188 124 C 285.996094 123.632812 285.714844 123.292969 285.402344 122.976562 C 285.089844 122.664062 284.746094 122.382812 284.378906 122.136719 C 284.007812 121.890625 283.621094 121.683594 283.210938 121.511719 C 282.800781 121.34375 282.375 121.214844 281.941406 121.128906 C 281.507812 121.042969 281.066406 121 280.621094 121 C 279.960938 120.988281 279.304688 120.917969 278.65625 120.78125 C 278.003906 120.644531 277.375 120.449219 276.765625 120.191406 C 276.152344 119.933594 275.574219 119.621094 275.023438 119.25 C 274.472656 118.878906 273.960938 118.460938 273.492188 117.992188 C 273.023438 117.519531 272.605469 117.011719 272.234375 116.460938 C 271.863281 115.910156 271.550781 115.332031 271.292969 114.71875 C 271.035156 114.109375 270.839844 113.480469 270.703125 112.828125 C 270.566406 112.179688 270.496094 111.523438 270.484375 110.859375 C 270.496094 109.925781 270.59375 109 270.785156 108.085938 C 270.972656 107.167969 271.25 106.28125 271.613281 105.417969 C 271.980469 104.558594 272.421875 103.742188 272.945312 102.964844 C 273.472656 102.191406 274.066406 101.476562 274.730469 100.816406 C 275.394531 100.160156 276.117188 99.570312 276.894531 99.054688 C 277.675781 98.539062 278.496094 98.101562 279.359375 97.746094 C 280.226562 97.390625 281.117188 97.121094 282.035156 96.941406 C 282.953125 96.757812 283.878906 96.667969 284.8125 96.667969 C 285.449219 96.671875 286.082031 96.707031 286.714844 96.773438 C 287.347656 96.839844 287.976562 96.9375 288.601562 97.066406 C 289.222656 97.191406 289.839844 97.351562 290.449219 97.535156 C 291.054688 97.722656 291.652344 97.941406 292.242188 98.1875 C 292.828125 98.433594 293.402344 98.707031 293.960938 99.007812 C 294.523438 99.308594 295.066406 99.636719 295.59375 99.988281 C 296.125 100.34375 296.632812 100.722656 297.125 101.128906 C 297.617188 101.53125 298.085938 101.957031 298.535156 102.410156 C 298.988281 102.859375 299.414062 103.328125 299.816406 103.820312 C 300.222656 104.3125 300.601562 104.824219 300.957031 105.351562 C 301.308594 105.878906 301.636719 106.421875 301.9375 106.984375 C 302.242188 107.542969 302.515625 108.117188 302.757812 108.703125 C 303.003906 109.292969 303.222656 109.890625 303.410156 110.496094 C 303.59375 111.105469 303.753906 111.722656 303.878906 112.34375 C 304.007812 112.96875 304.105469 113.597656 304.171875 114.230469 C 304.238281 114.863281 304.273438 115.496094 304.277344 116.132812 C 304.273438 116.984375 304.226562 117.835938 304.140625 118.683594 C 304.050781 119.535156 303.921875 120.375 303.753906 121.210938 C 303.582031 122.046875 303.375 122.875 303.125 123.691406 C 302.871094 124.503906 302.582031 125.308594 302.253906 126.09375 C 301.925781 126.882812 301.558594 127.652344 301.15625 128.402344 C 300.753906 129.15625 300.3125 129.882812 299.839844 130.59375 C 299.363281 131.300781 298.855469 131.984375 298.3125 132.644531 C 297.773438 133.304688 297.199219 133.9375 296.597656 134.539062 C 295.992188 135.140625 295.363281 135.714844 294.703125 136.257812 C 294.042969 136.796875 293.359375 137.304688 292.652344 137.78125 C 291.941406 138.257812 291.210938 138.695312 290.460938 139.097656 C 289.707031 139.503906 288.9375 139.867188 288.152344 140.195312 C 287.363281 140.527344 286.5625 140.816406 285.746094 141.066406 C 284.933594 141.316406 284.105469 141.527344 283.269531 141.695312 C 282.433594 141.863281 281.589844 141.992188 280.742188 142.082031 C 279.894531 142.167969 279.042969 142.214844 278.191406 142.21875 C 277.066406 142.21875 275.945312 142.164062 274.824219 142.054688 C 273.707031 141.941406 272.59375 141.777344 271.492188 141.558594 C 270.390625 141.339844 269.300781 141.066406 268.222656 140.742188 C 267.148438 140.414062 266.089844 140.035156 265.050781 139.605469 C 264.011719 139.175781 263 138.695312 262.007812 138.164062 C 261.015625 137.636719 260.050781 137.058594 259.117188 136.433594 C 258.183594 135.808594 257.28125 135.140625 256.410156 134.425781 C 255.542969 133.710938 254.710938 132.957031 253.914062 132.164062 C 253.121094 131.367188 252.363281 130.535156 251.652344 129.667969 C 250.9375 128.796875 250.269531 127.894531 249.644531 126.960938 C 249.019531 126.027344 248.441406 125.0625 247.914062 124.070312 C 247.382812 123.078125 246.902344 122.0625 246.472656 121.027344 C 246.042969 119.988281 245.664062 118.929688 245.335938 117.851562 C 245.011719 116.777344 244.738281 115.6875 244.519531 114.585938 C 244.300781 113.480469 244.132812 112.371094 244.023438 111.253906 C 243.914062 110.132812 243.859375 109.011719 243.859375 107.886719 C 243.863281 106.429688 243.9375 104.976562 244.085938 103.523438 C 244.234375 102.074219 244.449219 100.632812 244.738281 99.203125 C 245.027344 97.777344 245.382812 96.363281 245.8125 94.96875 C 246.238281 93.574219 246.730469 92.207031 247.292969 90.859375 C 247.855469 89.515625 248.480469 88.199219 249.167969 86.914062 C 249.859375 85.628906 250.609375 84.382812 251.421875 83.171875 C 252.234375 81.960938 253.105469 80.792969 254.03125 79.667969 C 254.957031 78.542969 255.9375 77.464844 256.96875 76.433594 C 258.003906 75.40625 259.082031 74.429688 260.210938 73.507812 C 261.339844 72.582031 262.511719 71.714844 263.722656 70.90625 C 264.9375 70.097656 266.1875 69.351562 267.472656 68.664062 C 268.761719 67.980469 270.078125 67.359375 271.425781 66.800781 C 272.773438 66.246094 274.144531 65.753906 275.539062 65.332031 C 276.933594 64.910156 278.347656 64.558594 279.777344 64.273438 C 281.207031 63.988281 282.648438 63.777344 284.097656 63.632812 C 285.550781 63.492188 287.003906 63.417969 288.460938 63.417969 C 290.339844 63.417969 292.210938 63.511719 294.078125 63.695312 C 295.949219 63.878906 297.800781 64.152344 299.644531 64.519531 C 301.484375 64.886719 303.300781 65.34375 305.097656 65.886719 C 306.894531 66.429688 308.660156 67.0625 310.394531 67.78125 C 312.128906 68.5 313.824219 69.300781 315.476562 70.1875 C 317.132812 71.070312 318.742188 72.035156 320.300781 73.078125 C 321.863281 74.121094 323.367188 75.238281 324.820312 76.425781 C 326.269531 77.617188 327.660156 78.878906 328.984375 80.203125 C 330.3125 81.53125 331.570312 82.921875 332.761719 84.371094 C 333.953125 85.824219 335.070312 87.328125 336.113281 88.890625 C 337.15625 90.449219 338.121094 92.058594 339.003906 93.710938 C 339.890625 95.367188 340.691406 97.0625 341.410156 98.796875 C 342.128906 100.53125 342.757812 102.296875 343.304688 104.09375 C 343.847656 105.886719 344.304688 107.707031 344.671875 109.546875 C 345.035156 111.386719 345.3125 113.242188 345.496094 115.109375 C 345.679688 116.980469 345.769531 118.851562 345.769531 120.726562 C 345.769531 121.929688 345.742188 123.128906 345.683594 124.328125 C 345.625 125.527344 345.535156 126.726562 345.417969 127.921875 C 345.300781 129.117188 345.152344 130.308594 344.976562 131.496094 C 344.800781 132.683594 344.59375 133.867188 344.359375 135.046875 C 344.125 136.222656 343.863281 137.394531 343.570312 138.5625 C 343.28125 139.726562 342.960938 140.882812 342.609375 142.03125 C 342.261719 143.183594 341.886719 144.324219 341.480469 145.453125 C 341.078125 146.585938 340.644531 147.703125 340.183594 148.8125 C 339.726562 149.925781 339.238281 151.023438 338.726562 152.109375 C 338.210938 153.191406 337.671875 154.265625 337.105469 155.324219 C 336.539062 156.382812 335.945312 157.429688 335.328125 158.460938 C 334.710938 159.488281 334.070312 160.503906 333.402344 161.503906 C 332.734375 162.5 332.042969 163.484375 331.328125 164.449219 C 330.613281 165.414062 329.875 166.359375 329.113281 167.289062 C 328.351562 168.214844 327.566406 169.125 326.757812 170.015625 C 325.953125 170.90625 325.125 171.773438 324.273438 172.625 C 323.425781 173.472656 322.554688 174.300781 321.664062 175.109375 C 320.777344 175.914062 319.867188 176.699219 318.9375 177.460938 C 318.007812 178.222656 317.0625 178.960938 316.097656 179.679688 C 315.132812 180.394531 314.152344 181.085938 313.152344 181.753906 C 312.15625 182.417969 311.140625 183.0625 310.109375 183.679688 C 309.078125 184.296875 308.035156 184.890625 306.976562 185.453125 C 305.917969 186.019531 304.84375 186.5625 303.757812 187.074219 C 302.671875 187.589844 301.574219 188.074219 300.464844 188.535156 C 299.355469 188.992188 298.234375 189.425781 297.105469 189.832031 C 295.972656 190.234375 294.832031 190.613281 293.683594 190.960938 C 292.535156 191.308594 291.375 191.628906 290.210938 191.921875 C 289.046875 192.214844 287.875 192.476562 286.695312 192.710938 C 285.519531 192.945312 284.335938 193.152344 283.148438 193.328125 C 281.960938 193.503906 280.765625 193.648438 279.570312 193.769531 C 278.375 193.886719 277.179688 193.972656 275.980469 194.03125 C 274.78125 194.089844 273.578125 194.121094 272.378906 194.121094 L 53.007812 194.121094 C 52.566406 194.128906 52.132812 194.179688 51.699219 194.273438 C 51.269531 194.363281 50.851562 194.496094 50.445312 194.671875 C 50.039062 194.84375 49.652344 195.054688 49.285156 195.300781 C 48.921875 195.546875 48.582031 195.828125 48.269531 196.140625 C 47.957031 196.449219 47.675781 196.789062 47.429688 197.15625 C 47.183594 197.519531 46.972656 197.90625 46.800781 198.3125 C 46.628906 198.71875 46.496094 199.136719 46.402344 199.570312 C 46.308594 200 46.261719 200.4375 46.25 200.878906 C 46.25 201.324219 46.292969 201.761719 46.382812 202.199219 C 46.46875 202.632812 46.597656 203.054688 46.765625 203.464844 C 46.9375 203.875 47.144531 204.265625 47.390625 204.632812 C 47.636719 205.003906 47.917969 205.34375 48.230469 205.65625 C 48.542969 205.972656 48.886719 206.25 49.253906 206.5 C 49.625 206.746094 50.011719 206.953125 50.421875 207.121094 C 50.832031 207.292969 51.257812 207.421875 51.691406 207.507812 C 52.125 207.59375 52.566406 207.636719 53.007812 207.636719 L 272.378906 207.636719 C 273.800781 207.636719 275.222656 207.601562 276.640625 207.53125 C 278.0625 207.460938 279.480469 207.359375 280.898438 207.21875 C 282.3125 207.078125 283.722656 206.90625 285.128906 206.695312 C 286.539062 206.488281 287.9375 206.246094 289.332031 205.96875 C 290.726562 205.691406 292.117188 205.378906 293.496094 205.03125 C 294.875 204.6875 296.246094 204.308594 297.605469 203.894531 C 298.96875 203.480469 300.316406 203.035156 301.65625 202.558594 C 302.996094 202.078125 304.324219 201.566406 305.636719 201.023438 C 306.949219 200.476562 308.25 199.902344 309.535156 199.292969 C 310.824219 198.683594 312.09375 198.046875 313.347656 197.375 C 314.601562 196.703125 315.839844 196.003906 317.058594 195.273438 C 318.277344 194.542969 319.480469 193.78125 320.664062 192.992188 C 321.84375 192.199219 323.007812 191.382812 324.148438 190.535156 C 325.292969 189.6875 326.414062 188.8125 327.511719 187.910156 C 328.613281 187.007812 329.6875 186.078125 330.742188 185.125 C 331.796875 184.167969 332.828125 183.1875 333.832031 182.183594 C 334.839844 181.175781 335.820312 180.148438 336.773438 179.09375 C 337.730469 178.039062 338.65625 176.960938 339.558594 175.863281 C 340.460938 174.761719 341.335938 173.640625 342.183594 172.5 C 343.03125 171.355469 343.851562 170.195312 344.640625 169.011719 C 345.429688 167.828125 346.191406 166.628906 346.921875 165.410156 C 347.652344 164.1875 348.355469 162.949219 349.027344 161.695312 C 349.695312 160.441406 350.335938 159.171875 350.941406 157.886719 C 351.550781 156.601562 352.128906 155.300781 352.671875 153.988281 C 353.214844 152.671875 353.726562 151.347656 354.207031 150.007812 C 354.6875 148.667969 355.132812 147.316406 355.546875 145.957031 C 355.957031 144.59375 356.335938 143.226562 356.683594 141.84375 C 357.027344 140.464844 357.339844 139.078125 357.617188 137.683594 C 357.894531 136.289062 358.136719 134.886719 358.347656 133.480469 C 358.554688 132.074219 358.730469 130.660156 358.867188 129.246094 C 359.007812 127.832031 359.113281 126.414062 359.183594 124.992188 C 359.253906 123.570312 359.289062 122.148438 359.289062 120.726562 C 359.285156 119.570312 359.253906 118.410156 359.195312 117.253906 C 359.136719 116.097656 359.050781 114.941406 358.933594 113.789062 C 358.820312 112.636719 358.675781 111.488281 358.503906 110.34375 C 358.332031 109.195312 358.132812 108.054688 357.90625 106.921875 C 357.675781 105.785156 357.421875 104.65625 357.136719 103.53125 C 356.855469 102.40625 356.546875 101.292969 356.207031 100.183594 C 355.871094 99.074219 355.503906 97.976562 355.113281 96.886719 C 354.722656 95.796875 354.304688 94.714844 353.859375 93.644531 C 353.414062 92.574219 352.945312 91.515625 352.449219 90.46875 C 351.953125 89.421875 351.433594 88.390625 350.886719 87.367188 C 350.339844 86.347656 349.765625 85.339844 349.171875 84.347656 C 348.574219 83.351562 347.953125 82.375 347.308594 81.410156 C 346.664062 80.449219 346 79.5 345.308594 78.570312 C 344.617188 77.640625 343.90625 76.730469 343.167969 75.832031 C 342.433594 74.9375 341.679688 74.0625 340.898438 73.203125 C 340.121094 72.34375 339.324219 71.503906 338.503906 70.6875 C 337.683594 69.867188 336.847656 69.070312 335.988281 68.289062 C 335.128906 67.511719 334.253906 66.753906 333.355469 66.019531 C 332.460938 65.285156 331.550781 64.574219 330.617188 63.882812 C 329.6875 63.191406 328.742188 62.523438 327.777344 61.878906 C 326.816406 61.234375 325.835938 60.617188 324.84375 60.019531 C 323.851562 59.421875 322.84375 58.851562 321.824219 58.304688 C 320.800781 57.757812 319.765625 57.238281 318.71875 56.742188 C 317.671875 56.246094 316.613281 55.773438 315.546875 55.328125 C 314.476562 54.886719 313.394531 54.46875 312.304688 54.078125 C 311.214844 53.683594 310.113281 53.320312 309.007812 52.984375 C 307.898438 52.644531 306.78125 52.335938 305.660156 52.050781 C 304.535156 51.769531 303.40625 51.511719 302.269531 51.285156 C 301.132812 51.058594 299.992188 50.859375 298.847656 50.6875 C 297.703125 50.515625 296.554688 50.371094 295.398438 50.257812 C 294.246094 50.140625 293.09375 50.054688 291.9375 49.996094 C 290.777344 49.9375 289.621094 49.90625 288.460938 49.902344 Z M 288.460938 49.902344 " fill-opacity="1" fill-rule="nonzero"/></g><path fill="#f4f6fc" d="M 225.207031 216.421875 L 82.609375 216.421875 C 82.167969 216.429688 81.730469 216.480469 81.300781 216.574219 C 80.871094 216.667969 80.449219 216.800781 80.042969 216.972656 C 79.636719 217.144531 79.253906 217.355469 78.886719 217.601562 C 78.519531 217.847656 78.183594 218.128906 77.871094 218.441406 C 77.558594 218.753906 77.277344 219.089844 77.03125 219.457031 C 76.785156 219.824219 76.574219 220.210938 76.402344 220.613281 C 76.226562 221.019531 76.097656 221.441406 76.003906 221.871094 C 75.910156 222.304688 75.859375 222.738281 75.851562 223.179688 C 75.851562 223.625 75.894531 224.0625 75.980469 224.5 C 76.070312 224.933594 76.195312 225.355469 76.367188 225.765625 C 76.535156 226.175781 76.746094 226.566406 76.992188 226.9375 C 77.238281 227.304688 77.519531 227.644531 77.832031 227.960938 C 78.144531 228.273438 78.488281 228.554688 78.855469 228.800781 C 79.222656 229.046875 79.613281 229.253906 80.023438 229.425781 C 80.433594 229.59375 80.855469 229.722656 81.292969 229.808594 C 81.726562 229.894531 82.167969 229.9375 82.609375 229.9375 L 225.207031 229.9375 C 226.691406 229.945312 228.175781 230.019531 229.652344 230.171875 C 231.132812 230.320312 232.601562 230.539062 234.058594 230.835938 C 235.515625 231.128906 236.953125 231.492188 238.375 231.925781 C 239.796875 232.359375 241.191406 232.859375 242.566406 233.433594 C 243.9375 234.003906 245.277344 234.640625 246.589844 235.339844 C 247.898438 236.042969 249.171875 236.808594 250.40625 237.632812 C 251.640625 238.460938 252.832031 239.347656 253.980469 240.289062 C 255.128906 241.230469 256.230469 242.230469 257.28125 243.28125 C 258.332031 244.332031 259.328125 245.429688 260.269531 246.578125 C 261.214844 247.726562 262.097656 248.917969 262.925781 250.15625 C 263.753906 251.390625 264.515625 252.664062 265.21875 253.972656 C 265.921875 255.28125 266.558594 256.621094 267.128906 257.996094 C 267.699219 259.367188 268.203125 260.765625 268.636719 262.1875 C 269.070312 263.605469 269.433594 265.046875 269.726562 266.503906 C 270.019531 267.960938 270.242188 269.429688 270.390625 270.90625 C 270.539062 272.386719 270.617188 273.867188 270.621094 275.355469 C 270.617188 276.496094 270.554688 277.636719 270.441406 278.777344 C 270.324219 279.914062 270.152344 281.042969 269.925781 282.164062 C 269.699219 283.285156 269.417969 284.390625 269.082031 285.484375 C 268.746094 286.578125 268.359375 287.652344 267.917969 288.707031 C 267.476562 289.765625 266.984375 290.796875 266.445312 291.800781 C 265.902344 292.808594 265.3125 293.789062 264.675781 294.738281 C 264.035156 295.6875 263.355469 296.601562 262.625 297.484375 C 261.898438 298.367188 261.128906 299.210938 260.320312 300.019531 C 259.511719 300.828125 258.660156 301.59375 257.777344 302.316406 C 256.890625 303.039062 255.972656 303.71875 255.019531 304.355469 C 254.070312 304.988281 253.089844 305.574219 252.078125 306.113281 C 251.070312 306.648438 250.035156 307.136719 248.980469 307.574219 C 247.921875 308.011719 246.847656 308.394531 245.75 308.726562 C 244.65625 309.058594 243.550781 309.332031 242.425781 309.554688 C 241.304688 309.777344 240.175781 309.945312 239.035156 310.058594 C 237.898438 310.167969 236.757812 310.226562 235.613281 310.226562 C 234.730469 310.226562 233.84375 310.183594 232.964844 310.09375 C 232.082031 310.007812 231.207031 309.878906 230.339844 309.707031 C 229.472656 309.535156 228.613281 309.320312 227.765625 309.0625 C 226.917969 308.804688 226.085938 308.507812 225.269531 308.167969 C 224.449219 307.828125 223.652344 307.449219 222.871094 307.035156 C 222.089844 306.617188 221.332031 306.160156 220.59375 305.667969 C 219.859375 305.179688 219.148438 304.652344 218.464844 304.089844 C 217.78125 303.527344 217.125 302.933594 216.5 302.308594 C 215.875 301.683594 215.277344 301.027344 214.71875 300.34375 C 214.15625 299.65625 213.628906 298.949219 213.136719 298.210938 C 212.644531 297.476562 212.191406 296.71875 211.773438 295.9375 C 211.355469 295.15625 210.976562 294.355469 210.640625 293.539062 C 210.300781 292.71875 210.003906 291.886719 209.746094 291.039062 C 209.488281 290.191406 209.273438 289.335938 209.101562 288.46875 C 208.929688 287.597656 208.796875 286.722656 208.710938 285.84375 C 208.625 284.960938 208.582031 284.078125 208.582031 283.191406 C 208.585938 282.539062 208.621094 281.890625 208.691406 281.242188 C 208.757812 280.59375 208.859375 279.949219 208.988281 279.308594 C 209.121094 278.671875 209.28125 278.039062 209.472656 277.417969 C 209.667969 276.792969 209.890625 276.179688 210.144531 275.578125 C 210.394531 274.976562 210.675781 274.390625 210.988281 273.816406 C 211.296875 273.242188 211.636719 272.683594 212 272.144531 C 212.363281 271.601562 212.753906 271.082031 213.171875 270.578125 C 213.585938 270.078125 214.023438 269.59375 214.488281 269.136719 C 214.949219 268.675781 215.433594 268.238281 215.941406 267.828125 C 216.445312 267.414062 216.96875 267.027344 217.515625 266.667969 C 218.058594 266.304688 218.617188 265.972656 219.191406 265.667969 C 219.769531 265.359375 220.359375 265.082031 220.960938 264.832031 C 221.566406 264.585938 222.179688 264.367188 222.804688 264.179688 C 223.425781 263.988281 224.058594 263.832031 224.699219 263.707031 C 225.339844 263.578125 225.984375 263.484375 226.632812 263.417969 C 227.28125 263.355469 227.933594 263.324219 228.585938 263.324219 L 230.074219 263.324219 C 229.492188 263.335938 228.914062 263.378906 228.339844 263.449219 C 227.761719 263.519531 227.191406 263.617188 226.625 263.742188 C 226.058594 263.867188 225.5 264.023438 224.949219 264.203125 C 224.398438 264.382812 223.855469 264.59375 223.328125 264.824219 C 222.796875 265.058594 222.277344 265.320312 221.773438 265.605469 C 221.265625 265.890625 220.777344 266.199219 220.300781 266.53125 C 219.828125 266.867188 219.371094 267.222656 218.929688 267.597656 C 218.492188 267.976562 218.070312 268.375 217.667969 268.796875 C 217.269531 269.214844 216.890625 269.652344 216.53125 270.109375 C 216.175781 270.566406 215.839844 271.039062 215.527344 271.53125 C 215.21875 272.019531 214.929688 272.523438 214.667969 273.039062 C 214.40625 273.558594 214.171875 274.085938 213.964844 274.628906 C 213.753906 275.167969 213.570312 275.71875 213.414062 276.277344 C 213.257812 276.835938 213.132812 277.402344 213.03125 277.972656 C 212.933594 278.546875 212.859375 279.121094 212.816406 279.699219 C 212.773438 280.277344 212.757812 280.855469 212.773438 281.4375 C 212.773438 282.105469 212.804688 282.769531 212.871094 283.4375 C 212.933594 284.101562 213.035156 284.761719 213.164062 285.417969 C 213.292969 286.074219 213.457031 286.722656 213.648438 287.359375 C 213.84375 288 214.070312 288.628906 214.324219 289.246094 C 214.582031 289.863281 214.867188 290.46875 215.179688 291.058594 C 215.496094 291.648438 215.839844 292.21875 216.210938 292.773438 C 216.582031 293.332031 216.980469 293.867188 217.402344 294.382812 C 217.828125 294.898438 218.277344 295.394531 218.75 295.867188 C 219.222656 296.339844 219.714844 296.789062 220.234375 297.210938 C 220.75 297.636719 221.285156 298.035156 221.84375 298.40625 C 222.398438 298.777344 222.96875 299.121094 223.558594 299.4375 C 224.148438 299.75 224.753906 300.035156 225.371094 300.292969 C 225.988281 300.546875 226.617188 300.773438 227.257812 300.964844 C 227.894531 301.160156 228.542969 301.324219 229.199219 301.453125 C 229.855469 301.582031 230.515625 301.683594 231.179688 301.746094 C 231.847656 301.8125 232.511719 301.84375 233.179688 301.84375 C 233.964844 301.851562 234.742188 301.816406 235.523438 301.742188 C 236.300781 301.671875 237.074219 301.558594 237.839844 301.410156 C 238.609375 301.261719 239.367188 301.078125 240.117188 300.851562 C 240.867188 300.628906 241.601562 300.371094 242.324219 300.074219 C 243.050781 299.777344 243.757812 299.445312 244.449219 299.082031 C 245.140625 298.714844 245.808594 298.316406 246.460938 297.882812 C 247.113281 297.453125 247.742188 296.988281 248.347656 296.492188 C 248.953125 296 249.535156 295.476562 250.089844 294.925781 C 250.644531 294.375 251.171875 293.796875 251.667969 293.195312 C 252.164062 292.589844 252.632812 291.964844 253.066406 291.316406 C 253.503906 290.667969 253.90625 289.996094 254.277344 289.308594 C 254.644531 288.621094 254.980469 287.914062 255.28125 287.191406 C 255.582031 286.46875 255.84375 285.734375 256.074219 284.988281 C 256.300781 284.238281 256.492188 283.480469 256.644531 282.714844 C 256.796875 281.949219 256.914062 281.175781 256.988281 280.398438 C 257.066406 279.617188 257.105469 278.839844 257.105469 278.058594 C 257.105469 277.136719 257.058594 276.21875 256.96875 275.300781 C 256.878906 274.386719 256.746094 273.476562 256.566406 272.570312 C 256.386719 271.667969 256.160156 270.777344 255.894531 269.894531 C 255.625 269.015625 255.316406 268.148438 254.964844 267.296875 C 254.613281 266.449219 254.21875 265.617188 253.785156 264.804688 C 253.351562 263.992188 252.878906 263.203125 252.367188 262.4375 C 251.855469 261.671875 251.308594 260.933594 250.722656 260.222656 C 250.140625 259.511719 249.523438 258.828125 248.871094 258.175781 C 248.21875 257.527344 247.539062 256.910156 246.828125 256.324219 C 246.113281 255.742188 245.375 255.191406 244.609375 254.679688 C 243.84375 254.167969 243.054688 253.695312 242.242188 253.261719 C 241.433594 252.828125 240.601562 252.433594 239.75 252.082031 C 238.898438 251.730469 238.03125 251.421875 237.152344 251.152344 C 236.269531 250.886719 235.378906 250.664062 234.476562 250.484375 C 233.574219 250.304688 232.664062 250.167969 231.746094 250.078125 C 230.832031 249.988281 229.910156 249.941406 228.992188 249.941406 C 227.894531 249.941406 226.804688 249.996094 225.714844 250.105469 C 224.625 250.210938 223.542969 250.371094 222.46875 250.582031 C 221.394531 250.796875 220.332031 251.0625 219.285156 251.378906 C 218.238281 251.695312 217.207031 252.0625 216.195312 252.480469 C 215.183594 252.898438 214.191406 253.367188 213.226562 253.882812 C 212.261719 254.394531 211.320312 254.957031 210.410156 255.5625 C 209.5 256.171875 208.621094 256.820312 207.773438 257.515625 C 206.925781 258.207031 206.113281 258.941406 205.335938 259.714844 C 204.558594 260.484375 203.824219 261.292969 203.128906 262.140625 C 202.429688 262.984375 201.777344 263.863281 201.167969 264.769531 C 200.554688 265.679688 199.992188 266.617188 199.472656 267.582031 C 198.953125 268.542969 198.484375 269.53125 198.0625 270.542969 C 197.640625 271.550781 197.265625 272.582031 196.945312 273.628906 C 196.625 274.675781 196.355469 275.734375 196.136719 276.808594 C 195.921875 277.882812 195.757812 278.960938 195.644531 280.050781 C 195.53125 281.140625 195.476562 282.234375 195.472656 283.328125 C 195.472656 284.65625 195.535156 285.980469 195.664062 287.300781 C 195.796875 288.625 195.992188 289.9375 196.25 291.238281 C 196.507812 292.542969 196.832031 293.828125 197.214844 295.097656 C 197.601562 296.371094 198.050781 297.617188 198.558594 298.84375 C 199.066406 300.074219 199.632812 301.273438 200.257812 302.441406 C 200.882812 303.613281 201.566406 304.75 202.304688 305.855469 C 203.042969 306.960938 203.832031 308.027344 204.675781 309.050781 C 205.515625 310.078125 206.40625 311.0625 207.347656 312 C 208.285156 312.941406 209.269531 313.832031 210.296875 314.671875 C 211.320312 315.515625 212.386719 316.304688 213.492188 317.042969 C 214.597656 317.78125 215.734375 318.464844 216.90625 319.089844 C 218.074219 319.714844 219.273438 320.28125 220.503906 320.789062 C 221.730469 321.296875 222.976562 321.746094 224.25 322.132812 C 225.519531 322.515625 226.804688 322.839844 228.109375 323.097656 C 229.410156 323.355469 230.722656 323.550781 232.046875 323.683594 C 233.367188 323.8125 234.691406 323.878906 236.019531 323.878906 C 237.605469 323.878906 239.1875 323.800781 240.765625 323.644531 C 242.347656 323.488281 243.914062 323.257812 245.46875 322.949219 C 247.023438 322.640625 248.5625 322.253906 250.082031 321.796875 C 251.597656 321.335938 253.089844 320.800781 254.558594 320.195312 C 256.023438 319.589844 257.457031 318.914062 258.855469 318.167969 C 260.253906 317.421875 261.617188 316.609375 262.933594 315.726562 C 264.253906 314.847656 265.527344 313.90625 266.757812 312.898438 C 267.984375 311.894531 269.160156 310.832031 270.28125 309.710938 C 271.40625 308.59375 272.472656 307.421875 273.480469 306.195312 C 274.488281 304.96875 275.433594 303.699219 276.316406 302.382812 C 277.203125 301.066406 278.019531 299.707031 278.769531 298.308594 C 279.519531 296.910156 280.199219 295.480469 280.808594 294.015625 C 281.421875 292.550781 281.957031 291.0625 282.421875 289.542969 C 282.886719 288.027344 283.273438 286.492188 283.585938 284.9375 C 283.902344 283.382812 284.136719 281.8125 284.296875 280.234375 C 284.457031 278.65625 284.539062 277.074219 284.542969 275.488281 C 284.542969 273.546875 284.449219 271.613281 284.257812 269.683594 C 284.066406 267.75 283.78125 265.835938 283.402344 263.933594 C 283.023438 262.03125 282.550781 260.152344 281.984375 258.292969 C 281.421875 256.4375 280.765625 254.613281 280.019531 252.824219 C 279.277344 251.03125 278.445312 249.28125 277.527344 247.570312 C 276.613281 245.859375 275.613281 244.199219 274.53125 242.589844 C 273.453125 240.976562 272.292969 239.421875 271.058594 237.925781 C 269.828125 236.429688 268.523438 234.996094 267.148438 233.628906 C 265.773438 232.257812 264.332031 230.960938 262.832031 229.734375 C 261.328125 228.507812 259.769531 227.355469 258.152344 226.28125 C 256.535156 225.210938 254.871094 224.21875 253.15625 223.308594 C 251.441406 222.398438 249.6875 221.578125 247.894531 220.839844 C 246.097656 220.105469 244.269531 219.457031 242.414062 218.902344 C 240.554688 218.347656 238.671875 217.882812 236.769531 217.511719 C 234.863281 217.140625 232.945312 216.863281 231.015625 216.683594 C 229.082031 216.5 227.148438 216.414062 225.207031 216.421875 Z M 243.589844 278.328125 C 243.578125 279.003906 243.503906 279.675781 243.367188 280.339844 C 243.226562 281 243.023438 281.644531 242.757812 282.269531 C 242.492188 282.890625 242.167969 283.484375 241.789062 284.042969 C 241.40625 284.605469 240.976562 285.125 240.492188 285.597656 C 240.011719 286.074219 239.488281 286.5 238.921875 286.875 C 238.355469 287.246094 237.761719 287.5625 237.132812 287.820312 C 236.503906 288.078125 235.859375 288.273438 235.195312 288.402344 C 234.53125 288.535156 233.859375 288.601562 233.179688 288.597656 C 232.726562 288.597656 232.28125 288.554688 231.835938 288.46875 C 231.390625 288.378906 230.960938 288.25 230.542969 288.074219 C 230.125 287.902344 229.726562 287.6875 229.351562 287.4375 C 228.976562 287.1875 228.625 286.902344 228.308594 286.582031 C 227.988281 286.261719 227.699219 285.914062 227.449219 285.535156 C 227.199219 285.160156 226.984375 284.761719 226.8125 284.34375 C 226.640625 283.925781 226.507812 283.496094 226.421875 283.050781 C 226.332031 282.605469 226.289062 282.160156 226.289062 281.707031 C 226.289062 281.429688 226.316406 281.160156 226.367188 280.890625 C 226.421875 280.617188 226.5 280.355469 226.605469 280.101562 C 226.710938 279.847656 226.839844 279.605469 226.992188 279.378906 C 227.148438 279.148438 227.320312 278.9375 227.515625 278.742188 C 227.710938 278.550781 227.921875 278.375 228.148438 278.222656 C 228.378906 278.070312 228.621094 277.941406 228.875 277.835938 C 229.128906 277.730469 229.390625 277.652344 229.660156 277.597656 C 229.929688 277.542969 230.203125 277.515625 230.476562 277.515625 C 230.921875 277.515625 231.359375 277.472656 231.796875 277.386719 C 232.230469 277.300781 232.652344 277.171875 233.0625 277 C 233.472656 276.832031 233.863281 276.625 234.230469 276.378906 C 234.601562 276.128906 234.941406 275.851562 235.257812 275.535156 C 235.570312 275.222656 235.851562 274.882812 236.097656 274.511719 C 236.34375 274.144531 236.550781 273.753906 236.722656 273.34375 C 236.890625 272.933594 237.019531 272.511719 237.105469 272.078125 C 237.191406 271.640625 237.234375 271.203125 237.234375 270.757812 C 237.230469 270.101562 237.132812 269.457031 236.941406 268.828125 C 236.75 268.199219 236.476562 267.609375 236.117188 267.058594 C 235.757812 266.507812 235.328125 266.015625 234.828125 265.589844 C 234.328125 265.160156 233.78125 264.8125 233.179688 264.539062 C 233.921875 264.757812 234.644531 265.03125 235.339844 265.363281 C 236.039062 265.695312 236.707031 266.082031 237.34375 266.519531 C 237.976562 266.960938 238.574219 267.445312 239.132812 267.980469 C 239.691406 268.515625 240.203125 269.09375 240.667969 269.710938 C 241.136719 270.328125 241.546875 270.976562 241.910156 271.660156 C 242.269531 272.34375 242.578125 273.050781 242.824219 273.78125 C 243.070312 274.515625 243.261719 275.261719 243.386719 276.023438 C 243.515625 276.785156 243.582031 277.554688 243.589844 278.328125 Z M 243.589844 278.328125 " fill-opacity="1" fill-rule="nonzero"/><g clip-path="url(#570d9cb7f4)"><path fill="#f4f6fc" d="M 223.855469 126.269531 C 223.855469 124.683594 223.777344 123.097656 223.621094 121.519531 C 223.464844 119.9375 223.230469 118.371094 222.921875 116.8125 C 222.613281 115.257812 222.226562 113.71875 221.765625 112.199219 C 221.300781 110.679688 220.765625 109.1875 220.160156 107.722656 C 219.550781 106.253906 218.871094 104.820312 218.121094 103.421875 C 217.371094 102.023438 216.554688 100.664062 215.671875 99.34375 C 214.789062 98.023438 213.84375 96.753906 212.832031 95.527344 C 211.824219 94.300781 210.757812 93.128906 209.632812 92.007812 C 208.511719 90.886719 207.332031 89.820312 206.105469 88.816406 C 204.875 87.8125 203.601562 86.867188 202.28125 85.988281 C 200.957031 85.109375 199.597656 84.296875 198.195312 83.550781 C 196.792969 82.804688 195.359375 82.128906 193.890625 81.527344 C 192.421875 80.921875 190.929688 80.390625 189.40625 79.933594 C 187.886719 79.476562 186.347656 79.09375 184.789062 78.789062 C 183.234375 78.480469 181.664062 78.253906 180.082031 78.101562 C 178.503906 77.949219 176.917969 77.878906 175.332031 77.882812 C 174.003906 77.882812 172.679688 77.945312 171.355469 78.078125 C 170.035156 78.207031 168.722656 78.402344 167.421875 78.660156 C 166.117188 78.917969 164.832031 79.242188 163.5625 79.628906 C 162.289062 80.011719 161.042969 80.460938 159.8125 80.96875 C 158.585938 81.476562 157.386719 82.042969 156.21875 82.667969 C 155.046875 83.296875 153.90625 83.976562 152.804688 84.714844 C 151.699219 85.453125 150.632812 86.242188 149.609375 87.085938 C 148.582031 87.929688 147.597656 88.820312 146.660156 89.757812 C 145.71875 90.695312 144.828125 91.679688 143.988281 92.707031 C 143.144531 93.734375 142.355469 94.796875 141.617188 95.902344 C 140.878906 97.007812 140.195312 98.144531 139.570312 99.316406 C 138.945312 100.488281 138.378906 101.6875 137.871094 102.914062 C 137.359375 104.140625 136.914062 105.386719 136.527344 106.660156 C 136.144531 107.929688 135.820312 109.21875 135.5625 110.519531 C 135.304688 111.820312 135.109375 113.132812 134.976562 114.457031 C 134.847656 115.777344 134.78125 117.101562 134.78125 118.429688 C 134.78125 119.523438 134.835938 120.617188 134.945312 121.707031 C 135.050781 122.796875 135.210938 123.878906 135.421875 124.953125 C 135.636719 126.027344 135.902344 127.089844 136.21875 128.136719 C 136.535156 129.183594 136.902344 130.214844 137.320312 131.226562 C 137.738281 132.238281 138.207031 133.226562 138.722656 134.195312 C 139.234375 135.160156 139.796875 136.097656 140.402344 137.011719 C 141.011719 137.921875 141.660156 138.800781 142.355469 139.648438 C 143.046875 140.496094 143.78125 141.308594 144.554688 142.085938 C 145.324219 142.859375 146.132812 143.597656 146.980469 144.292969 C 147.824219 144.988281 148.699219 145.644531 149.609375 146.253906 C 150.519531 146.863281 151.457031 147.429688 152.417969 147.949219 C 153.382812 148.46875 154.371094 148.9375 155.382812 149.359375 C 156.390625 149.78125 157.421875 150.152344 158.46875 150.476562 C 159.515625 150.796875 160.574219 151.066406 161.648438 151.285156 C 162.722656 151.5 163.800781 151.664062 164.890625 151.777344 C 165.980469 151.886719 167.074219 151.945312 168.167969 151.949219 C 169.089844 151.949219 170.007812 151.90625 170.921875 151.816406 C 171.839844 151.726562 172.75 151.589844 173.652344 151.410156 C 174.554688 151.230469 175.449219 151.007812 176.328125 150.738281 C 177.210938 150.472656 178.074219 150.164062 178.925781 149.808594 C 179.777344 149.457031 180.609375 149.066406 181.421875 148.628906 C 182.234375 148.195312 183.023438 147.722656 183.785156 147.210938 C 184.550781 146.699219 185.292969 146.152344 186.003906 145.570312 C 186.714844 144.984375 187.394531 144.367188 188.046875 143.714844 C 188.699219 143.066406 189.316406 142.382812 189.898438 141.671875 C 190.484375 140.960938 191.03125 140.222656 191.542969 139.457031 C 192.054688 138.691406 192.527344 137.902344 192.960938 137.089844 C 193.394531 136.277344 193.789062 135.445312 194.140625 134.59375 C 194.492188 133.746094 194.804688 132.878906 195.070312 131.996094 C 195.339844 131.117188 195.5625 130.222656 195.742188 129.320312 C 195.921875 128.417969 196.054688 127.507812 196.144531 126.59375 C 196.238281 125.675781 196.28125 124.757812 196.28125 123.835938 C 196.28125 123.058594 196.242188 122.28125 196.167969 121.503906 C 196.089844 120.730469 195.976562 119.960938 195.824219 119.195312 C 195.671875 118.429688 195.484375 117.675781 195.257812 116.929688 C 195.03125 116.1875 194.769531 115.453125 194.472656 114.734375 C 194.171875 114.011719 193.839844 113.308594 193.472656 112.621094 C 193.105469 111.9375 192.707031 111.269531 192.273438 110.621094 C 191.839844 109.972656 191.375 109.347656 190.882812 108.746094 C 190.386719 108.144531 189.863281 107.566406 189.3125 107.015625 C 188.761719 106.464844 188.1875 105.941406 187.585938 105.449219 C 186.980469 104.953125 186.355469 104.488281 185.710938 104.058594 C 185.0625 103.625 184.394531 103.222656 183.707031 102.855469 C 183.019531 102.488281 182.316406 102.15625 181.597656 101.859375 C 180.875 101.5625 180.144531 101.296875 179.398438 101.074219 C 178.652344 100.847656 177.898438 100.65625 177.132812 100.503906 C 176.371094 100.351562 175.601562 100.238281 174.824219 100.164062 C 174.050781 100.085938 173.273438 100.046875 172.492188 100.046875 C 171.824219 100.042969 171.15625 100.070312 170.488281 100.132812 C 169.820312 100.195312 169.160156 100.289062 168.503906 100.417969 C 167.84375 100.546875 167.195312 100.703125 166.554688 100.894531 C 165.910156 101.089844 165.28125 101.3125 164.660156 101.566406 C 164.042969 101.820312 163.4375 102.101562 162.84375 102.417969 C 162.253906 102.730469 161.679688 103.074219 161.121094 103.445312 C 160.566406 103.816406 160.027344 104.214844 159.507812 104.640625 C 158.992188 105.0625 158.496094 105.511719 158.019531 105.984375 C 157.546875 106.460938 157.097656 106.957031 156.675781 107.472656 C 156.25 107.992188 155.851562 108.527344 155.480469 109.085938 C 155.109375 109.644531 154.765625 110.21875 154.453125 110.808594 C 154.140625 111.402344 153.855469 112.007812 153.601562 112.625 C 153.347656 113.246094 153.125 113.875 152.933594 114.519531 C 152.738281 115.160156 152.582031 115.808594 152.453125 116.464844 C 152.324219 117.125 152.230469 117.785156 152.167969 118.453125 C 152.109375 119.121094 152.078125 119.789062 152.082031 120.457031 C 152.082031 121.03125 152.113281 121.605469 152.167969 122.179688 C 152.226562 122.753906 152.308594 123.320312 152.421875 123.886719 C 152.535156 124.449219 152.671875 125.007812 152.839844 125.558594 C 153.007812 126.109375 153.199219 126.648438 153.421875 127.183594 C 153.640625 127.714844 153.886719 128.234375 154.160156 128.742188 C 154.429688 129.25 154.726562 129.742188 155.042969 130.21875 C 155.363281 130.699219 155.707031 131.160156 156.070312 131.605469 C 156.4375 132.050781 156.824219 132.476562 157.230469 132.882812 C 157.636719 133.289062 158.0625 133.675781 158.507812 134.039062 C 158.953125 134.40625 159.414062 134.746094 159.894531 135.066406 C 160.371094 135.386719 160.863281 135.683594 161.371094 135.953125 C 161.878906 136.226562 162.398438 136.472656 162.929688 136.691406 C 163.460938 136.910156 164.003906 137.105469 164.554688 137.273438 C 165.105469 137.4375 165.664062 137.578125 166.226562 137.691406 C 166.792969 137.804688 167.359375 137.886719 167.933594 137.945312 C 168.503906 138 169.078125 138.027344 169.65625 138.027344 C 169.023438 138.09375 168.394531 138.09375 167.761719 138.027344 C 167.109375 138.027344 166.457031 137.996094 165.804688 137.933594 C 165.15625 137.867188 164.511719 137.773438 163.871094 137.644531 C 163.230469 137.515625 162.59375 137.355469 161.96875 137.164062 C 161.34375 136.976562 160.730469 136.753906 160.128906 136.503906 C 159.523438 136.253906 158.933594 135.972656 158.359375 135.664062 C 157.78125 135.351562 157.222656 135.015625 156.679688 134.652344 C 156.140625 134.289062 155.617188 133.898438 155.113281 133.480469 C 154.609375 133.066406 154.125 132.625 153.664062 132.160156 C 153.203125 131.699219 152.769531 131.210938 152.355469 130.707031 C 151.941406 130.199219 151.554688 129.671875 151.195312 129.128906 C 150.835938 128.582031 150.5 128.023438 150.195312 127.445312 C 149.890625 126.867188 149.613281 126.273438 149.367188 125.667969 C 149.121094 125.066406 148.902344 124.449219 148.71875 123.824219 C 148.53125 123.195312 148.375 122.5625 148.253906 121.921875 C 148.128906 121.277344 148.035156 120.632812 147.976562 119.980469 C 147.917969 119.332031 147.890625 118.679688 147.894531 118.023438 C 147.894531 117.140625 147.9375 116.257812 148.023438 115.375 C 148.109375 114.492188 148.242188 113.621094 148.414062 112.75 C 148.585938 111.882812 148.800781 111.023438 149.058594 110.175781 C 149.316406 109.332031 149.613281 108.496094 149.953125 107.679688 C 150.289062 106.863281 150.667969 106.0625 151.085938 105.28125 C 151.503906 104.5 151.957031 103.742188 152.449219 103.007812 C 152.941406 102.269531 153.46875 101.558594 154.03125 100.875 C 154.589844 100.191406 155.183594 99.535156 155.8125 98.910156 C 156.4375 98.285156 157.09375 97.691406 157.777344 97.128906 C 158.460938 96.566406 159.171875 96.039062 159.90625 95.546875 C 160.644531 95.054688 161.402344 94.601562 162.183594 94.183594 C 162.964844 93.765625 163.761719 93.390625 164.582031 93.050781 C 165.398438 92.710938 166.230469 92.414062 167.078125 92.15625 C 167.925781 91.898438 168.785156 91.683594 169.652344 91.511719 C 170.519531 91.339844 171.394531 91.210938 172.277344 91.121094 C 173.15625 91.035156 174.039062 90.992188 174.925781 90.992188 C 176.070312 90.992188 177.210938 91.046875 178.347656 91.160156 C 179.488281 91.273438 180.617188 91.4375 181.738281 91.660156 C 182.859375 91.882812 183.96875 92.160156 185.0625 92.492188 C 186.160156 92.824219 187.234375 93.207031 188.292969 93.644531 C 189.347656 94.082031 190.382812 94.566406 191.390625 95.105469 C 192.402344 95.644531 193.382812 96.230469 194.332031 96.863281 C 195.285156 97.496094 196.203125 98.175781 197.089844 98.902344 C 197.972656 99.625 198.820312 100.390625 199.632812 101.199219 C 200.441406 102.003906 201.210938 102.851562 201.9375 103.730469 C 202.667969 104.613281 203.347656 105.53125 203.988281 106.480469 C 204.625 107.429688 205.214844 108.40625 205.753906 109.414062 C 206.296875 110.421875 206.789062 111.453125 207.230469 112.507812 C 207.671875 113.5625 208.058594 114.640625 208.394531 115.730469 C 208.730469 116.824219 209.011719 117.933594 209.238281 119.054688 C 209.464844 120.175781 209.636719 121.304688 209.753906 122.441406 C 209.867188 123.578125 209.929688 124.71875 209.933594 125.863281 C 209.929688 127.347656 209.851562 128.828125 209.703125 130.304688 C 209.550781 131.785156 209.332031 133.25 209.039062 134.703125 C 208.742188 136.160156 208.378906 137.597656 207.945312 139.015625 C 207.511719 140.4375 207.007812 141.832031 206.4375 143.203125 C 205.867188 144.570312 205.230469 145.910156 204.527344 147.21875 C 203.824219 148.527344 203.058594 149.796875 202.234375 151.03125 C 201.40625 152.261719 200.519531 153.453125 199.578125 154.597656 C 198.632812 155.746094 197.636719 156.839844 196.582031 157.890625 C 195.53125 158.9375 194.433594 159.933594 193.285156 160.871094 C 192.136719 161.8125 190.941406 162.695312 189.707031 163.519531 C 188.472656 164.339844 187.199219 165.101562 185.890625 165.800781 C 184.578125 166.5 183.238281 167.132812 181.867188 167.699219 C 180.496094 168.265625 179.097656 168.765625 177.675781 169.195312 C 176.257812 169.625 174.816406 169.984375 173.363281 170.273438 C 171.90625 170.5625 170.4375 170.78125 168.960938 170.925781 C 167.484375 171.070312 166.003906 171.144531 164.519531 171.144531 L 22.460938 171.144531 C 22.019531 171.144531 21.578125 171.1875 21.144531 171.273438 C 20.710938 171.359375 20.285156 171.488281 19.875 171.65625 C 19.464844 171.828125 19.078125 172.035156 18.707031 172.28125 C 18.339844 172.527344 17.996094 172.808594 17.683594 173.121094 C 17.371094 173.4375 17.089844 173.777344 16.84375 174.148438 C 16.597656 174.515625 16.390625 174.90625 16.21875 175.316406 C 16.050781 175.726562 15.921875 176.148438 15.835938 176.582031 C 15.746094 177.019531 15.703125 177.457031 15.703125 177.902344 C 15.703125 178.34375 15.746094 178.785156 15.835938 179.21875 C 15.921875 179.65625 16.050781 180.078125 16.21875 180.488281 C 16.390625 180.898438 16.597656 181.289062 16.84375 181.65625 C 17.089844 182.023438 17.371094 182.367188 17.683594 182.679688 C 17.996094 182.992188 18.339844 183.273438 18.707031 183.519531 C 19.078125 183.765625 19.464844 183.976562 19.875 184.144531 C 20.285156 184.316406 20.710938 184.441406 21.144531 184.53125 C 21.578125 184.617188 22.019531 184.660156 22.460938 184.660156 L 164.925781 184.660156 C 166.84375 184.660156 168.757812 184.566406 170.667969 184.378906 C 172.578125 184.191406 174.472656 183.914062 176.355469 183.539062 C 178.238281 183.167969 180.097656 182.707031 181.933594 182.152344 C 183.769531 181.597656 185.578125 180.957031 187.351562 180.226562 C 189.125 179.496094 190.859375 178.679688 192.554688 177.78125 C 194.25 176.882812 195.898438 175.902344 197.496094 174.839844 C 199.097656 173.78125 200.640625 172.644531 202.128906 171.433594 C 203.617188 170.222656 205.042969 168.941406 206.40625 167.589844 C 207.765625 166.242188 209.0625 164.828125 210.285156 163.351562 C 211.511719 161.871094 212.660156 160.339844 213.738281 158.75 C 214.8125 157.160156 215.808594 155.523438 216.722656 153.835938 C 217.636719 152.148438 218.46875 150.421875 219.214844 148.65625 C 219.960938 146.886719 220.621094 145.089844 221.191406 143.257812 C 221.761719 141.425781 222.242188 139.570312 222.628906 137.691406 C 223.019531 135.8125 223.316406 133.917969 223.523438 132.007812 C 223.726562 130.101562 223.835938 128.1875 223.855469 126.269531 Z M 169.789062 123.972656 C 169.519531 123.980469 169.253906 123.964844 168.988281 123.917969 C 168.722656 123.871094 168.464844 123.800781 168.214844 123.703125 C 167.964844 123.601562 167.726562 123.480469 167.503906 123.332031 C 167.277344 123.183594 167.070312 123.015625 166.878906 122.824219 C 166.691406 122.636719 166.523438 122.429688 166.375 122.203125 C 166.226562 121.980469 166.105469 121.742188 166.003906 121.492188 C 165.90625 121.242188 165.835938 120.984375 165.789062 120.71875 C 165.742188 120.453125 165.726562 120.1875 165.734375 119.917969 C 165.734375 119.464844 165.777344 119.015625 165.867188 118.570312 C 165.957031 118.128906 166.085938 117.695312 166.257812 117.277344 C 166.433594 116.859375 166.644531 116.464844 166.898438 116.085938 C 167.148438 115.710938 167.433594 115.363281 167.753906 115.042969 C 168.074219 114.722656 168.421875 114.4375 168.796875 114.183594 C 169.175781 113.933594 169.570312 113.722656 169.992188 113.546875 C 170.410156 113.375 170.839844 113.246094 171.285156 113.15625 C 171.726562 113.066406 172.175781 113.023438 172.628906 113.023438 C 173.304688 113.023438 173.972656 113.089844 174.632812 113.222656 C 175.292969 113.351562 175.9375 113.546875 176.558594 113.804688 C 177.183594 114.0625 177.773438 114.378906 178.335938 114.753906 C 178.894531 115.128906 179.414062 115.554688 179.890625 116.03125 C 180.367188 116.507812 180.792969 117.027344 181.167969 117.589844 C 181.542969 118.148438 181.859375 118.742188 182.117188 119.363281 C 182.375 119.988281 182.570312 120.628906 182.703125 121.292969 C 182.835938 121.953125 182.902344 122.621094 182.902344 123.296875 C 182.886719 124.058594 182.8125 124.816406 182.675781 125.566406 C 182.542969 126.316406 182.347656 127.054688 182.09375 127.773438 C 181.84375 128.492188 181.535156 129.1875 181.171875 129.859375 C 180.808594 130.53125 180.394531 131.167969 179.929688 131.773438 C 179.460938 132.375 178.953125 132.941406 178.394531 133.464844 C 177.839844 133.984375 177.246094 134.460938 176.617188 134.890625 C 175.984375 135.316406 175.324219 135.691406 174.632812 136.015625 C 173.941406 136.339844 173.226562 136.605469 172.492188 136.8125 C 173.109375 136.5625 173.671875 136.230469 174.183594 135.808594 C 174.699219 135.386719 175.136719 134.898438 175.496094 134.339844 C 175.859375 133.785156 176.132812 133.1875 176.308594 132.546875 C 176.488281 131.910156 176.570312 131.257812 176.546875 130.59375 C 176.539062 130.171875 176.492188 129.757812 176.40625 129.34375 C 176.320312 128.929688 176.199219 128.53125 176.039062 128.140625 C 175.878906 127.75 175.683594 127.378906 175.453125 127.027344 C 175.222656 126.671875 174.960938 126.34375 174.667969 126.039062 C 174.375 125.734375 174.058594 125.460938 173.714844 125.214844 C 173.371094 124.972656 173.007812 124.761719 172.628906 124.582031 C 172.246094 124.40625 171.847656 124.265625 171.441406 124.164062 C 171.03125 124.0625 170.617188 123.996094 170.195312 123.972656 Z M 169.789062 123.972656 " fill-opacity="1" fill-rule="nonzero"/></g></svg>