<svg xmlns="http://www.w3.org/2000/svg" xmlns:xlink="http://www.w3.org/1999/xlink" width="500" zoomAndPan="magnify" viewBox="0 0 375 374.999991" height="500" preserveAspectRatio="xMidYMid meet" version="1.0"><defs><clipPath id="a54a889f6c"><path d="M 141 37.5 L 234 37.5 L 234 134 L 141 134 Z M 141 37.5 " clip-rule="nonzero"/></clipPath><clipPath id="0b3ac7ce4c"><path d="M 231 94 L 319.53125 94 L 319.53125 179 L 231 179 Z M 231 94 " clip-rule="nonzero"/></clipPath><clipPath id="216f3a8c9e"><path d="M 231 196 L 319.53125 196 L 319.53125 281 L 231 281 Z M 231 196 " clip-rule="nonzero"/></clipPath><clipPath id="c9d5ee631c"><path d="M 141 241 L 234 241 L 234 337.5 L 141 337.5 Z M 141 241 " clip-rule="nonzero"/></clipPath><clipPath id="c71b047579"><path d="M 55.53125 196 L 143 196 L 143 281 L 55.53125 281 Z M 55.53125 196 " clip-rule="nonzero"/></clipPath><clipPath id="bce485bdef"><path d="M 55.53125 94 L 143 94 L 143 179 L 55.53125 179 Z M 55.53125 94 " clip-rule="nonzero"/></clipPath></defs><g clip-path="url(#a54a889f6c)"><path fill="#f4f6fc" d="M 156.910156 70.238281 C 165.40625 70.238281 172.292969 77.125 172.292969 85.617188 C 172.292969 94.117188 165.40625 101 156.910156 101 C 148.414062 101 141.527344 94.117188 141.527344 85.617188 C 141.527344 77.125 148.414062 70.238281 156.910156 70.238281 Z M 218.085938 70.238281 C 226.578125 70.238281 233.46875 77.125 233.46875 85.617188 C 233.46875 94.117188 226.578125 101 218.085938 101 C 209.589844 101 202.703125 94.117188 202.703125 85.617188 C 202.703125 77.125 209.589844 70.238281 218.085938 70.238281 Z M 179.617188 66.097656 C 174.960938 63.316406 172.113281 58.3125 172.113281 52.882812 C 172.113281 44.386719 179.003906 37.503906 187.5 37.503906 C 195.992188 37.503906 202.882812 44.386719 202.882812 52.882812 C 202.882812 58.179688 200.203125 62.851562 196.132812 65.613281 C 188.375 70.886719 187.113281 100.140625 195.476562 105.203125 C 199.917969 107.898438 202.882812 112.78125 202.882812 118.355469 C 202.882812 126.847656 195.992188 133.738281 187.5 133.738281 C 179.003906 133.738281 172.113281 126.847656 172.113281 118.355469 C 172.113281 112.738281 175.125 107.828125 179.617188 105.140625 C 186.996094 100.8125 187.03125 70.542969 179.617188 66.097656 Z M 179.617188 66.097656 " fill-opacity="1" fill-rule="evenodd"/></g><g clip-path="url(#0b3ac7ce4c)"><path fill="#7ac3fe" d="M 304.34375 155.355469 C 308.59375 162.714844 306.070312 172.125 298.714844 176.367188 C 291.355469 180.617188 281.945312 178.097656 277.699219 170.738281 C 273.453125 163.382812 275.972656 153.972656 283.328125 149.726562 C 290.6875 145.480469 300.09375 148 304.34375 155.355469 Z M 288.695312 119.976562 C 288.777344 114.550781 291.683594 109.585938 296.386719 106.871094 C 303.746094 102.625 313.152344 105.144531 317.398438 112.5 C 321.644531 119.855469 319.128906 129.265625 311.769531 133.511719 C 307.183594 136.160156 301.804688 136.179688 297.371094 134.035156 C 288.925781 129.953125 262.960938 143.488281 262.757812 153.261719 C 262.644531 158.453125 259.898438 163.460938 255.070312 166.25 C 247.710938 170.496094 238.304688 167.976562 234.058594 160.617188 C 229.8125 153.261719 232.332031 143.855469 239.6875 139.605469 C 244.550781 136.796875 250.308594 136.949219 254.882812 139.496094 C 262.320312 143.722656 288.554688 128.617188 288.695312 119.976562 Z M 273.757812 102.378906 C 278.003906 109.738281 275.484375 119.144531 268.128906 123.390625 C 260.769531 127.640625 251.363281 125.117188 247.113281 117.761719 C 242.867188 110.40625 245.386719 100.996094 252.746094 96.75 C 260.101562 92.5 269.507812 95.023438 273.757812 102.378906 Z M 273.757812 102.378906 " fill-opacity="1" fill-rule="evenodd"/></g><g clip-path="url(#216f3a8c9e)"><path fill="#3a9bdc" d="M 304.34375 219.640625 C 300.097656 227 290.6875 229.519531 283.328125 225.273438 C 275.972656 221.027344 273.453125 211.617188 277.699219 204.257812 C 281.945312 196.902344 291.355469 194.382812 298.714844 198.628906 C 306.070312 202.875 308.59375 212.285156 304.34375 219.640625 Z M 273.757812 272.621094 C 269.507812 279.976562 260.101562 282.5 252.746094 278.25 C 245.386719 274.003906 242.867188 264.59375 247.113281 257.238281 C 251.363281 249.878906 260.769531 247.359375 268.128906 251.605469 C 275.484375 255.855469 278.003906 265.261719 273.757812 272.621094 Z M 296.574219 241.378906 C 301.3125 238.738281 307.066406 238.769531 311.769531 241.484375 C 319.128906 245.734375 321.644531 255.140625 317.398438 262.496094 C 313.152344 269.859375 303.746094 272.378906 296.386719 268.128906 C 291.800781 265.484375 289.09375 260.828125 288.734375 255.921875 C 288.050781 246.566406 263.34375 230.847656 254.78125 235.558594 C 250.222656 238.054688 244.515625 238.179688 239.6875 235.394531 C 232.332031 231.144531 229.8125 221.738281 234.058594 214.382812 C 238.304688 207.027344 247.714844 204.503906 255.070312 208.75 C 259.933594 211.558594 262.683594 216.621094 262.761719 221.855469 C 262.824219 230.410156 289.019531 245.574219 296.574219 241.378906 Z M 296.574219 241.378906 " fill-opacity="1" fill-rule="evenodd"/></g><g clip-path="url(#c9d5ee631c)"><path fill="#f4f6fc" d="M 218.085938 304.761719 C 209.589844 304.761719 202.703125 297.875 202.703125 289.378906 C 202.703125 280.882812 209.589844 273.996094 218.085938 273.996094 C 226.582031 273.996094 233.46875 280.882812 233.46875 289.378906 C 233.46875 297.875 226.582031 304.761719 218.085938 304.761719 Z M 195.378906 308.902344 C 200.035156 311.683594 202.882812 316.6875 202.882812 322.117188 C 202.882812 330.609375 195.992188 337.5 187.5 337.496094 C 179.003906 337.5 172.113281 330.609375 172.113281 322.117188 C 172.113281 316.820312 174.792969 312.152344 178.863281 309.382812 C 186.621094 304.113281 187.882812 274.859375 179.519531 269.796875 C 175.078125 267.101562 172.113281 262.21875 172.113281 256.644531 C 172.113281 248.148438 179.003906 241.265625 187.5 241.261719 C 195.992188 241.265625 202.882812 248.148438 202.882812 256.644531 C 202.882812 262.261719 199.871094 267.171875 195.378906 269.859375 C 188 274.1875 187.964844 304.457031 195.378906 308.902344 Z M 156.914062 304.761719 C 148.417969 304.761719 141.527344 297.875 141.527344 289.378906 C 141.527344 280.882812 148.417969 273.996094 156.910156 273.996094 C 165.40625 273.996094 172.292969 280.882812 172.292969 289.378906 C 172.292969 297.875 165.40625 304.761719 156.914062 304.761719 Z M 156.914062 304.761719 " fill-opacity="1" fill-rule="evenodd"/></g><g clip-path="url(#c71b047579)"><path fill="#7ac3fe" d="M 70.652344 219.644531 C 66.402344 212.285156 68.925781 202.875 76.28125 198.632812 C 83.640625 194.382812 93.046875 196.902344 97.296875 204.257812 C 101.542969 211.617188 99.023438 221.027344 91.664062 225.273438 C 84.308594 229.519531 74.902344 227 70.652344 219.644531 Z M 86.300781 255.023438 C 86.21875 260.449219 83.3125 265.414062 78.609375 268.128906 C 71.25 272.378906 61.84375 269.859375 57.597656 262.496094 C 53.347656 255.140625 55.871094 245.734375 63.226562 241.488281 C 67.8125 238.839844 73.195312 238.820312 77.625 240.964844 C 86.070312 245.046875 112.035156 231.511719 112.238281 221.738281 C 112.351562 216.546875 115.097656 211.539062 119.925781 208.75 C 127.285156 204.503906 136.691406 207.027344 140.9375 214.382812 C 145.183594 221.738281 142.664062 231.144531 135.308594 235.394531 C 130.445312 238.203125 124.6875 238.050781 120.113281 235.503906 C 112.675781 231.277344 86.445312 246.382812 86.300781 255.023438 Z M 101.238281 272.621094 C 96.992188 265.261719 99.511719 255.855469 106.867188 251.609375 C 114.226562 247.359375 123.632812 249.882812 127.882812 257.238281 C 132.128906 264.59375 129.609375 274.003906 122.25 278.25 C 114.894531 282.5 105.488281 279.976562 101.238281 272.621094 Z M 101.238281 272.621094 " fill-opacity="1" fill-rule="evenodd"/></g><g clip-path="url(#bce485bdef)"><path fill="#3a9bdc" d="M 101.238281 102.378906 C 105.488281 95.019531 114.894531 92.5 122.25 96.75 C 129.609375 100.996094 132.128906 110.40625 127.882812 117.761719 C 123.632812 125.121094 114.226562 127.640625 106.867188 123.394531 C 99.511719 119.144531 96.992188 109.738281 101.238281 102.378906 Z M 78.421875 133.621094 C 73.683594 136.261719 67.925781 136.226562 63.226562 133.511719 C 55.871094 129.265625 53.347656 119.855469 57.597656 112.5 C 61.84375 105.144531 71.25 102.621094 78.609375 106.871094 C 83.195312 109.515625 85.898438 114.171875 86.261719 119.078125 C 86.945312 128.433594 111.652344 144.152344 120.214844 139.441406 C 124.773438 136.945312 130.480469 136.820312 135.308594 139.605469 C 142.664062 143.855469 145.183594 153.261719 140.9375 160.617188 C 136.691406 167.976562 127.285156 170.496094 119.925781 166.25 C 115.0625 163.441406 112.3125 158.378906 112.234375 153.144531 C 112.171875 144.589844 85.976562 129.425781 78.421875 133.621094 Z M 70.652344 155.359375 C 74.898438 148 84.308594 145.480469 91.664062 149.726562 C 99.023438 153.976562 101.542969 163.382812 97.296875 170.738281 C 93.046875 178.097656 83.640625 180.617188 76.28125 176.371094 C 68.925781 172.125 66.402344 162.714844 70.652344 155.359375 Z M 70.652344 155.359375 " fill-opacity="1" fill-rule="evenodd"/></g><path fill="#3a9bdc" d="M 187.5 159.242188 C 203.105469 159.242188 215.757812 171.890625 215.757812 187.5 C 215.757812 203.109375 203.105469 215.757812 187.5 215.757812 C 171.890625 215.757812 159.238281 203.109375 159.238281 187.5 C 159.238281 171.890625 171.890625 159.242188 187.5 159.242188 Z M 187.5 159.242188 " fill-opacity="1" fill-rule="evenodd"/></svg>